<mxfile host="app.diagrams.net" agent="Mozilla/5.0 (X11; CrOS x86_64 14541.0.0) AppleWebKit/537.36 (KHTML, like Gecko) Chrome/132.0.0.0 Safari/537.36" version="26.0.11">
  <diagram id="R2lEEEUBdFMjLlhIrx00" name="Page-1">
    <mxGraphModel dx="1444" dy="1407" grid="1" gridSize="10" guides="1" tooltips="1" connect="1" arrows="1" fold="1" page="1" pageScale="1" pageWidth="850" pageHeight="1100" math="0" shadow="0" extFonts="Permanent Marker^https://fonts.googleapis.com/css?family=Permanent+Marker">
      <root>
        <mxCell id="0" />
        <mxCell id="1" parent="0" />
        <mxCell id="wG35B6qLhLQNdXqf6sS5-1" value="&lt;b&gt;USER&lt;/b&gt;" style="html=1;dashed=0;whiteSpace=wrap;strokeWidth=4;fillColor=#dae8fc;strokeColor=#6c8ebf;" vertex="1" parent="1">
          <mxGeometry x="30" y="256" width="150" height="70" as="geometry" />
        </mxCell>
        <mxCell id="wG35B6qLhLQNdXqf6sS5-2" value="&lt;b&gt;SCHEDULE&lt;/b&gt;" style="html=1;dashed=0;whiteSpace=wrap;strokeWidth=2;fillColor=#dae8fc;strokeColor=#6c8ebf;" vertex="1" parent="1">
          <mxGeometry x="547.5" y="266" width="110" height="50" as="geometry" />
        </mxCell>
        <mxCell id="wG35B6qLhLQNdXqf6sS5-273" style="edgeStyle=orthogonalEdgeStyle;rounded=0;orthogonalLoop=1;jettySize=auto;html=1;exitX=0;exitY=0.5;exitDx=0;exitDy=0;entryX=0.5;entryY=0;entryDx=0;entryDy=0;endArrow=none;startFill=0;" edge="1" parent="1" source="wG35B6qLhLQNdXqf6sS5-17" target="wG35B6qLhLQNdXqf6sS5-2">
          <mxGeometry relative="1" as="geometry" />
        </mxCell>
        <mxCell id="wG35B6qLhLQNdXqf6sS5-17" value="startDate" style="ellipse;whiteSpace=wrap;html=1;align=center;fillColor=#ffe6cc;strokeColor=#d79b00;" vertex="1" parent="1">
          <mxGeometry x="740" y="223.5" width="100" height="40" as="geometry" />
        </mxCell>
        <mxCell id="wG35B6qLhLQNdXqf6sS5-18" value="endDate" style="ellipse;whiteSpace=wrap;html=1;align=center;fillColor=#ffe6cc;strokeColor=#d79b00;" vertex="1" parent="1">
          <mxGeometry x="740" y="268.5" width="100" height="40" as="geometry" />
        </mxCell>
        <mxCell id="wG35B6qLhLQNdXqf6sS5-195" style="edgeStyle=orthogonalEdgeStyle;rounded=0;orthogonalLoop=1;jettySize=auto;html=1;exitX=0.5;exitY=1;exitDx=0;exitDy=0;entryX=0;entryY=0.75;entryDx=0;entryDy=0;shape=link;" edge="1" parent="1" source="wG35B6qLhLQNdXqf6sS5-37" target="wG35B6qLhLQNdXqf6sS5-67">
          <mxGeometry relative="1" as="geometry" />
        </mxCell>
        <mxCell id="wG35B6qLhLQNdXqf6sS5-229" value="&lt;font style=&quot;font-size: 24px;&quot;&gt;&lt;b&gt;N&lt;/b&gt;&lt;/font&gt;" style="edgeLabel;html=1;align=center;verticalAlign=middle;resizable=0;points=[];" vertex="1" connectable="0" parent="wG35B6qLhLQNdXqf6sS5-195">
          <mxGeometry x="-0.2979" y="-1" relative="1" as="geometry">
            <mxPoint as="offset" />
          </mxGeometry>
        </mxCell>
        <mxCell id="wG35B6qLhLQNdXqf6sS5-37" value="&lt;b&gt;CREATES&lt;/b&gt;" style="shape=rhombus;double=1;perimeter=rhombusPerimeter;whiteSpace=wrap;html=1;align=center;strokeColor=#82b366;perimeterSpacing=0;fillColor=#d5e8d4;rounded=0;" vertex="1" parent="1">
          <mxGeometry x="365" y="238.5" width="130" height="100" as="geometry" />
        </mxCell>
        <mxCell id="wG35B6qLhLQNdXqf6sS5-16" value="title" style="ellipse;whiteSpace=wrap;html=1;align=center;fillColor=#ffe6cc;strokeColor=#d79b00;" vertex="1" parent="1">
          <mxGeometry x="740" y="313.5" width="100" height="40" as="geometry" />
        </mxCell>
        <mxCell id="wG35B6qLhLQNdXqf6sS5-59" value="CONTAINS" style="shape=rhombus;double=1;perimeter=rhombusPerimeter;whiteSpace=wrap;html=1;align=center;fillColor=#d5e8d4;strokeColor=#82b366;" vertex="1" parent="1">
          <mxGeometry x="542.5" y="401" width="120" height="60" as="geometry" />
        </mxCell>
        <mxCell id="wG35B6qLhLQNdXqf6sS5-65" value="" style="endArrow=classic;html=1;rounded=0;exitX=0.5;exitY=1;exitDx=0;exitDy=0;entryX=0.5;entryY=0;entryDx=0;entryDy=0;strokeWidth=2;" edge="1" parent="1" source="wG35B6qLhLQNdXqf6sS5-2" target="wG35B6qLhLQNdXqf6sS5-59">
          <mxGeometry width="50" height="50" relative="1" as="geometry">
            <mxPoint x="497.5" y="411" as="sourcePoint" />
            <mxPoint x="587.5" y="391" as="targetPoint" />
          </mxGeometry>
        </mxCell>
        <mxCell id="wG35B6qLhLQNdXqf6sS5-238" value="&lt;b&gt;1&lt;/b&gt;" style="edgeLabel;html=1;align=center;verticalAlign=middle;resizable=0;points=[];" vertex="1" connectable="0" parent="wG35B6qLhLQNdXqf6sS5-65">
          <mxGeometry x="-0.0485" relative="1" as="geometry">
            <mxPoint as="offset" />
          </mxGeometry>
        </mxCell>
        <mxCell id="wG35B6qLhLQNdXqf6sS5-66" value="" style="shape=link;html=1;rounded=0;exitX=0.5;exitY=1;exitDx=0;exitDy=0;" edge="1" parent="1" source="wG35B6qLhLQNdXqf6sS5-67">
          <mxGeometry width="100" relative="1" as="geometry">
            <mxPoint x="587.5" y="551" as="sourcePoint" />
            <mxPoint x="602.5" y="571" as="targetPoint" />
          </mxGeometry>
        </mxCell>
        <mxCell id="wG35B6qLhLQNdXqf6sS5-68" value="" style="shape=link;html=1;rounded=0;exitX=0.5;exitY=1;exitDx=0;exitDy=0;" edge="1" parent="1" source="wG35B6qLhLQNdXqf6sS5-59" target="wG35B6qLhLQNdXqf6sS5-67">
          <mxGeometry width="100" relative="1" as="geometry">
            <mxPoint x="602.5" y="481" as="sourcePoint" />
            <mxPoint x="602.5" y="571" as="targetPoint" />
          </mxGeometry>
        </mxCell>
        <mxCell id="wG35B6qLhLQNdXqf6sS5-239" value="&lt;b&gt;N&lt;/b&gt;" style="edgeLabel;html=1;align=center;verticalAlign=middle;resizable=0;points=[];" vertex="1" connectable="0" parent="wG35B6qLhLQNdXqf6sS5-68">
          <mxGeometry x="0.0088" relative="1" as="geometry">
            <mxPoint as="offset" />
          </mxGeometry>
        </mxCell>
        <mxCell id="wG35B6qLhLQNdXqf6sS5-279" style="edgeStyle=orthogonalEdgeStyle;rounded=0;orthogonalLoop=1;jettySize=auto;html=1;exitX=0.5;exitY=1;exitDx=0;exitDy=0;entryX=0.5;entryY=0;entryDx=0;entryDy=0;strokeWidth=2;" edge="1" parent="1" source="wG35B6qLhLQNdXqf6sS5-67" target="wG35B6qLhLQNdXqf6sS5-104">
          <mxGeometry relative="1" as="geometry" />
        </mxCell>
        <mxCell id="wG35B6qLhLQNdXqf6sS5-280" value="&lt;font style=&quot;font-size: 15px;&quot;&gt;&lt;b&gt;1&lt;/b&gt;&lt;/font&gt;" style="edgeLabel;html=1;align=center;verticalAlign=middle;resizable=0;points=[];" vertex="1" connectable="0" parent="wG35B6qLhLQNdXqf6sS5-279">
          <mxGeometry x="-0.1395" relative="1" as="geometry">
            <mxPoint as="offset" />
          </mxGeometry>
        </mxCell>
        <mxCell id="wG35B6qLhLQNdXqf6sS5-67" value="&lt;b&gt;TASK /&lt;/b&gt;&lt;div&gt;&lt;b&gt;ASSIGNMENT&lt;/b&gt;&lt;/div&gt;" style="html=1;dashed=0;whiteSpace=wrap;strokeWidth=2;fillColor=#dae8fc;strokeColor=#6c8ebf;" vertex="1" parent="1">
          <mxGeometry x="547.5" y="541" width="110" height="50" as="geometry" />
        </mxCell>
        <mxCell id="wG35B6qLhLQNdXqf6sS5-73" value="title" style="ellipse;whiteSpace=wrap;html=1;align=center;fillColor=#ffe6cc;strokeColor=#d79b00;" vertex="1" parent="1">
          <mxGeometry x="740" y="490" width="100" height="40" as="geometry" />
        </mxCell>
        <mxCell id="wG35B6qLhLQNdXqf6sS5-264" style="edgeStyle=orthogonalEdgeStyle;rounded=0;orthogonalLoop=1;jettySize=auto;html=1;exitX=0;exitY=0;exitDx=0;exitDy=0;entryX=0.75;entryY=0;entryDx=0;entryDy=0;endArrow=none;startFill=0;" edge="1" parent="1" source="wG35B6qLhLQNdXqf6sS5-74" target="wG35B6qLhLQNdXqf6sS5-67">
          <mxGeometry relative="1" as="geometry" />
        </mxCell>
        <mxCell id="wG35B6qLhLQNdXqf6sS5-74" value="description" style="ellipse;whiteSpace=wrap;html=1;align=center;fillColor=#ffe6cc;strokeColor=#d79b00;" vertex="1" parent="1">
          <mxGeometry x="740" y="540" width="100" height="40" as="geometry" />
        </mxCell>
        <mxCell id="wG35B6qLhLQNdXqf6sS5-75" value="priority" style="ellipse;whiteSpace=wrap;html=1;align=center;fillColor=#ffe6cc;strokeColor=#d79b00;" vertex="1" parent="1">
          <mxGeometry x="740" y="690" width="100" height="40" as="geometry" />
        </mxCell>
        <mxCell id="wG35B6qLhLQNdXqf6sS5-305" style="edgeStyle=orthogonalEdgeStyle;rounded=0;orthogonalLoop=1;jettySize=auto;html=1;exitX=0;exitY=0.5;exitDx=0;exitDy=0;entryX=0.75;entryY=1;entryDx=0;entryDy=0;endArrow=none;startFill=0;" edge="1" parent="1" source="wG35B6qLhLQNdXqf6sS5-76" target="wG35B6qLhLQNdXqf6sS5-67">
          <mxGeometry relative="1" as="geometry" />
        </mxCell>
        <mxCell id="wG35B6qLhLQNdXqf6sS5-76" value="startTime" style="ellipse;whiteSpace=wrap;html=1;align=center;fillColor=#ffe6cc;strokeColor=#010101;" vertex="1" parent="1">
          <mxGeometry x="740" y="740" width="100" height="40" as="geometry" />
        </mxCell>
        <mxCell id="wG35B6qLhLQNdXqf6sS5-265" value="" style="edgeStyle=orthogonalEdgeStyle;rounded=0;orthogonalLoop=1;jettySize=auto;html=1;endArrow=none;startFill=0;" edge="1" parent="1" source="wG35B6qLhLQNdXqf6sS5-77" target="wG35B6qLhLQNdXqf6sS5-67">
          <mxGeometry relative="1" as="geometry" />
        </mxCell>
        <mxCell id="wG35B6qLhLQNdXqf6sS5-77" value="deadline" style="ellipse;whiteSpace=wrap;html=1;align=center;fillColor=#ffe6cc;strokeColor=#89613C;" vertex="1" parent="1">
          <mxGeometry x="740" y="590" width="100" height="40" as="geometry" />
        </mxCell>
        <mxCell id="wG35B6qLhLQNdXqf6sS5-78" value="status" style="ellipse;whiteSpace=wrap;html=1;align=center;fillColor=#ffe6cc;strokeColor=#d79b00;" vertex="1" parent="1">
          <mxGeometry x="740" y="640" width="100" height="40" as="geometry" />
        </mxCell>
        <mxCell id="wG35B6qLhLQNdXqf6sS5-91" style="edgeStyle=orthogonalEdgeStyle;rounded=0;orthogonalLoop=1;jettySize=auto;html=1;exitX=0;exitY=0.25;exitDx=0;exitDy=0;entryX=1;entryY=0.5;entryDx=0;entryDy=0;endArrow=none;startFill=0;" edge="1" parent="1" source="wG35B6qLhLQNdXqf6sS5-86" target="wG35B6qLhLQNdXqf6sS5-87">
          <mxGeometry relative="1" as="geometry" />
        </mxCell>
        <mxCell id="wG35B6qLhLQNdXqf6sS5-97" style="edgeStyle=orthogonalEdgeStyle;rounded=0;orthogonalLoop=1;jettySize=auto;html=1;exitX=0;exitY=0.5;exitDx=0;exitDy=0;entryX=1;entryY=0.5;entryDx=0;entryDy=0;endArrow=none;startFill=0;" edge="1" parent="1" source="wG35B6qLhLQNdXqf6sS5-86" target="wG35B6qLhLQNdXqf6sS5-95">
          <mxGeometry relative="1" as="geometry" />
        </mxCell>
        <mxCell id="wG35B6qLhLQNdXqf6sS5-300" style="edgeStyle=orthogonalEdgeStyle;rounded=0;orthogonalLoop=1;jettySize=auto;html=1;exitX=0.5;exitY=1;exitDx=0;exitDy=0;entryX=0;entryY=0.5;entryDx=0;entryDy=0;endArrow=none;startFill=0;" edge="1" parent="1" source="wG35B6qLhLQNdXqf6sS5-86" target="wG35B6qLhLQNdXqf6sS5-299">
          <mxGeometry relative="1" as="geometry">
            <Array as="points">
              <mxPoint x="602" y="985" />
              <mxPoint x="602" y="1050" />
            </Array>
          </mxGeometry>
        </mxCell>
        <mxCell id="wG35B6qLhLQNdXqf6sS5-86" value="&lt;b&gt;Reflection&lt;/b&gt;" style="html=1;dashed=0;whiteSpace=wrap;fillColor=#dae8fc;strokeColor=#6c8ebf;" vertex="1" parent="1">
          <mxGeometry x="547.5" y="890" width="110" height="50" as="geometry" />
        </mxCell>
        <mxCell id="wG35B6qLhLQNdXqf6sS5-87" value="title" style="ellipse;whiteSpace=wrap;html=1;align=center;fillColor=#ffe6cc;strokeColor=#d79b00;" vertex="1" parent="1">
          <mxGeometry x="407.5" y="865" width="100" height="40" as="geometry" />
        </mxCell>
        <mxCell id="wG35B6qLhLQNdXqf6sS5-302" style="edgeStyle=orthogonalEdgeStyle;rounded=0;orthogonalLoop=1;jettySize=auto;html=1;exitX=1;exitY=0.5;exitDx=0;exitDy=0;entryX=0.25;entryY=1;entryDx=0;entryDy=0;endArrow=none;startFill=0;" edge="1" parent="1" source="wG35B6qLhLQNdXqf6sS5-88" target="wG35B6qLhLQNdXqf6sS5-86">
          <mxGeometry relative="1" as="geometry" />
        </mxCell>
        <mxCell id="wG35B6qLhLQNdXqf6sS5-88" value="content" style="ellipse;whiteSpace=wrap;html=1;align=center;fillColor=#ffe6cc;strokeColor=#d79b00;" vertex="1" parent="1">
          <mxGeometry x="407.5" y="970" width="100" height="40" as="geometry" />
        </mxCell>
        <mxCell id="wG35B6qLhLQNdXqf6sS5-95" value="date" style="ellipse;whiteSpace=wrap;html=1;align=center;fillColor=#ffe6cc;strokeColor=#d79b00;" vertex="1" parent="1">
          <mxGeometry x="407.5" y="920" width="100" height="40" as="geometry" />
        </mxCell>
        <mxCell id="wG35B6qLhLQNdXqf6sS5-107" style="edgeStyle=orthogonalEdgeStyle;rounded=0;orthogonalLoop=1;jettySize=auto;html=1;exitX=0.5;exitY=1;exitDx=0;exitDy=0;entryX=0.5;entryY=0;entryDx=0;entryDy=0;shape=link;" edge="1" parent="1" source="wG35B6qLhLQNdXqf6sS5-131" target="wG35B6qLhLQNdXqf6sS5-86">
          <mxGeometry relative="1" as="geometry" />
        </mxCell>
        <mxCell id="wG35B6qLhLQNdXqf6sS5-104" value="HAS" style="shape=rhombus;double=1;perimeter=rhombusPerimeter;whiteSpace=wrap;html=1;align=center;fillColor=#d5e8d4;strokeColor=#82b366;" vertex="1" parent="1">
          <mxGeometry x="542.5" y="790" width="120" height="60" as="geometry" />
        </mxCell>
        <mxCell id="wG35B6qLhLQNdXqf6sS5-133" value="" style="edgeStyle=orthogonalEdgeStyle;rounded=0;orthogonalLoop=1;jettySize=auto;html=1;exitX=0.5;exitY=1;exitDx=0;exitDy=0;entryX=0.5;entryY=0;entryDx=0;entryDy=0;shape=link;" edge="1" parent="1" source="wG35B6qLhLQNdXqf6sS5-104" target="wG35B6qLhLQNdXqf6sS5-131">
          <mxGeometry relative="1" as="geometry">
            <mxPoint x="603" y="850" as="sourcePoint" />
            <mxPoint x="603" y="890" as="targetPoint" />
          </mxGeometry>
        </mxCell>
        <mxCell id="wG35B6qLhLQNdXqf6sS5-131" value="&lt;b&gt;N&lt;/b&gt;" style="text;strokeColor=none;align=center;fillColor=none;html=1;verticalAlign=middle;whiteSpace=wrap;rounded=0;" vertex="1" parent="1">
          <mxGeometry x="587.5" y="865" width="30" height="15" as="geometry" />
        </mxCell>
        <mxCell id="wG35B6qLhLQNdXqf6sS5-134" value="" style="rounded=0;orthogonalLoop=1;jettySize=auto;html=1;shape=link;exitX=1;exitY=0.5;exitDx=0;exitDy=0;entryX=-0.003;entryY=0.454;entryDx=0;entryDy=0;entryPerimeter=0;" edge="1" parent="1" source="wG35B6qLhLQNdXqf6sS5-37" target="wG35B6qLhLQNdXqf6sS5-2">
          <mxGeometry relative="1" as="geometry">
            <mxPoint x="537.5" y="283.5" as="sourcePoint" />
            <mxPoint x="550" y="284" as="targetPoint" />
          </mxGeometry>
        </mxCell>
        <mxCell id="wG35B6qLhLQNdXqf6sS5-237" value="&lt;b&gt;&lt;font style=&quot;font-size: 14px;&quot;&gt;N&lt;/font&gt;&lt;/b&gt;" style="edgeLabel;html=1;align=center;verticalAlign=middle;resizable=0;points=[];" vertex="1" connectable="0" parent="wG35B6qLhLQNdXqf6sS5-134">
          <mxGeometry x="-0.0329" y="-1" relative="1" as="geometry">
            <mxPoint as="offset" />
          </mxGeometry>
        </mxCell>
        <mxCell id="wG35B6qLhLQNdXqf6sS5-259" style="edgeStyle=orthogonalEdgeStyle;rounded=0;orthogonalLoop=1;jettySize=auto;html=1;exitX=1;exitY=0.5;exitDx=0;exitDy=0;entryX=0.013;entryY=0.531;entryDx=0;entryDy=0;entryPerimeter=0;endArrow=none;startFill=0;" edge="1" parent="1" source="wG35B6qLhLQNdXqf6sS5-1" target="wG35B6qLhLQNdXqf6sS5-37">
          <mxGeometry relative="1" as="geometry" />
        </mxCell>
        <mxCell id="wG35B6qLhLQNdXqf6sS5-260" value="&lt;font style=&quot;font-size: 18px;&quot;&gt;&lt;b&gt;1&lt;/b&gt;&lt;/font&gt;" style="edgeLabel;html=1;align=center;verticalAlign=middle;resizable=0;points=[];" vertex="1" connectable="0" parent="wG35B6qLhLQNdXqf6sS5-259">
          <mxGeometry x="-0.0205" y="4" relative="1" as="geometry">
            <mxPoint y="2" as="offset" />
          </mxGeometry>
        </mxCell>
        <mxCell id="wG35B6qLhLQNdXqf6sS5-262" style="edgeStyle=orthogonalEdgeStyle;rounded=0;orthogonalLoop=1;jettySize=auto;html=1;exitX=0;exitY=0.5;exitDx=0;exitDy=0;entryX=0.632;entryY=0.024;entryDx=0;entryDy=0;entryPerimeter=0;endArrow=none;startFill=0;" edge="1" parent="1" source="wG35B6qLhLQNdXqf6sS5-73" target="wG35B6qLhLQNdXqf6sS5-67">
          <mxGeometry relative="1" as="geometry" />
        </mxCell>
        <mxCell id="wG35B6qLhLQNdXqf6sS5-269" value="description" style="ellipse;whiteSpace=wrap;html=1;align=center;fillColor=#ffe6cc;strokeColor=#d79b00;" vertex="1" parent="1">
          <mxGeometry x="740" y="361" width="100" height="40" as="geometry" />
        </mxCell>
        <mxCell id="wG35B6qLhLQNdXqf6sS5-278" style="edgeStyle=orthogonalEdgeStyle;rounded=0;orthogonalLoop=1;jettySize=auto;html=1;exitX=0;exitY=0.5;exitDx=0;exitDy=0;endArrow=none;startFill=0;" edge="1" parent="1" source="wG35B6qLhLQNdXqf6sS5-271">
          <mxGeometry relative="1" as="geometry">
            <mxPoint x="630" y="320" as="targetPoint" />
            <Array as="points">
              <mxPoint x="720" y="431" />
              <mxPoint x="720" y="400" />
              <mxPoint x="630" y="400" />
            </Array>
          </mxGeometry>
        </mxCell>
        <mxCell id="wG35B6qLhLQNdXqf6sS5-271" value="location" style="ellipse;whiteSpace=wrap;html=1;align=center;fillColor=#ffe6cc;strokeColor=#d79b00;" vertex="1" parent="1">
          <mxGeometry x="740" y="411" width="100" height="40" as="geometry" />
        </mxCell>
        <mxCell id="wG35B6qLhLQNdXqf6sS5-276" style="edgeStyle=orthogonalEdgeStyle;rounded=0;orthogonalLoop=1;jettySize=auto;html=1;exitX=0;exitY=0.5;exitDx=0;exitDy=0;entryX=1.014;entryY=0.666;entryDx=0;entryDy=0;entryPerimeter=0;endArrow=none;startFill=0;" edge="1" parent="1" source="wG35B6qLhLQNdXqf6sS5-16" target="wG35B6qLhLQNdXqf6sS5-2">
          <mxGeometry relative="1" as="geometry" />
        </mxCell>
        <mxCell id="wG35B6qLhLQNdXqf6sS5-277" style="edgeStyle=orthogonalEdgeStyle;rounded=0;orthogonalLoop=1;jettySize=auto;html=1;exitX=0;exitY=0;exitDx=0;exitDy=0;entryX=0.922;entryY=1.062;entryDx=0;entryDy=0;entryPerimeter=0;endArrow=none;startFill=0;" edge="1" parent="1" source="wG35B6qLhLQNdXqf6sS5-269" target="wG35B6qLhLQNdXqf6sS5-2">
          <mxGeometry relative="1" as="geometry" />
        </mxCell>
        <mxCell id="wG35B6qLhLQNdXqf6sS5-281" value="moodRating" style="ellipse;whiteSpace=wrap;html=1;align=center;fillColor=#ffe6cc;strokeColor=#d79b00;" vertex="1" parent="1">
          <mxGeometry x="407.5" y="1030" width="100" height="40" as="geometry" />
        </mxCell>
        <mxCell id="wG35B6qLhLQNdXqf6sS5-285" style="edgeStyle=orthogonalEdgeStyle;rounded=0;orthogonalLoop=1;jettySize=auto;html=1;exitX=0;exitY=0.5;exitDx=0;exitDy=0;entryX=0.25;entryY=0;entryDx=0;entryDy=0;endArrow=none;startFill=0;" edge="1" parent="1" source="wG35B6qLhLQNdXqf6sS5-284" target="wG35B6qLhLQNdXqf6sS5-2">
          <mxGeometry relative="1" as="geometry" />
        </mxCell>
        <mxCell id="wG35B6qLhLQNdXqf6sS5-284" value="&lt;u&gt;scheduleId&lt;/u&gt;" style="ellipse;whiteSpace=wrap;html=1;align=center;fillColor=#ffe6cc;strokeColor=#d79b00;" vertex="1" parent="1">
          <mxGeometry x="740" y="170" width="100" height="40" as="geometry" />
        </mxCell>
        <mxCell id="wG35B6qLhLQNdXqf6sS5-287" value="&lt;u&gt;taskId&lt;/u&gt;" style="ellipse;whiteSpace=wrap;html=1;align=center;fillColor=#ffe6cc;strokeColor=#d79b00;" vertex="1" parent="1">
          <mxGeometry x="390" y="630" width="100" height="40" as="geometry" />
        </mxCell>
        <mxCell id="wG35B6qLhLQNdXqf6sS5-293" style="edgeStyle=orthogonalEdgeStyle;rounded=0;orthogonalLoop=1;jettySize=auto;html=1;exitX=1;exitY=0.5;exitDx=0;exitDy=0;entryX=0.25;entryY=1;entryDx=0;entryDy=0;endArrow=none;startFill=0;" edge="1" parent="1" source="wG35B6qLhLQNdXqf6sS5-289" target="wG35B6qLhLQNdXqf6sS5-67">
          <mxGeometry relative="1" as="geometry" />
        </mxCell>
        <mxCell id="wG35B6qLhLQNdXqf6sS5-289" value="duration" style="ellipse;whiteSpace=wrap;html=1;align=center;fillColor=#ffe6cc;strokeColor=default;dashed=1;" vertex="1" parent="1">
          <mxGeometry x="390" y="680" width="100" height="40" as="geometry" />
        </mxCell>
        <mxCell id="wG35B6qLhLQNdXqf6sS5-290" value="deadlineCountDown" style="ellipse;whiteSpace=wrap;html=1;align=center;fillColor=#ffe6cc;strokeColor=#010101;dashed=1;" vertex="1" parent="1">
          <mxGeometry x="390" y="730" width="140" height="40" as="geometry" />
        </mxCell>
        <mxCell id="wG35B6qLhLQNdXqf6sS5-295" style="edgeStyle=orthogonalEdgeStyle;rounded=0;orthogonalLoop=1;jettySize=auto;html=1;exitX=1;exitY=0.5;exitDx=0;exitDy=0;entryX=0.391;entryY=1.023;entryDx=0;entryDy=0;entryPerimeter=0;endArrow=none;startFill=0;" edge="1" parent="1" source="wG35B6qLhLQNdXqf6sS5-290" target="wG35B6qLhLQNdXqf6sS5-67">
          <mxGeometry relative="1" as="geometry" />
        </mxCell>
        <mxCell id="wG35B6qLhLQNdXqf6sS5-297" style="edgeStyle=orthogonalEdgeStyle;rounded=0;orthogonalLoop=1;jettySize=auto;html=1;exitX=1;exitY=0.5;exitDx=0;exitDy=0;entryX=0.116;entryY=0.993;entryDx=0;entryDy=0;entryPerimeter=0;endArrow=none;startFill=0;" edge="1" parent="1" source="wG35B6qLhLQNdXqf6sS5-287" target="wG35B6qLhLQNdXqf6sS5-67">
          <mxGeometry relative="1" as="geometry" />
        </mxCell>
        <mxCell id="wG35B6qLhLQNdXqf6sS5-298" value="endTime" style="ellipse;whiteSpace=wrap;html=1;align=center;fillColor=#ffe6cc;strokeColor=#010101;" vertex="1" parent="1">
          <mxGeometry x="740" y="790" width="100" height="40" as="geometry" />
        </mxCell>
        <mxCell id="wG35B6qLhLQNdXqf6sS5-299" value="&lt;u&gt;reflectionId&lt;/u&gt;" style="ellipse;whiteSpace=wrap;html=1;align=center;fillColor=#ffe6cc;strokeColor=#d79b00;" vertex="1" parent="1">
          <mxGeometry x="650" y="1030" width="100" height="40" as="geometry" />
        </mxCell>
        <mxCell id="wG35B6qLhLQNdXqf6sS5-301" style="edgeStyle=orthogonalEdgeStyle;rounded=0;orthogonalLoop=1;jettySize=auto;html=1;exitX=1;exitY=0.5;exitDx=0;exitDy=0;entryX=0.372;entryY=1.045;entryDx=0;entryDy=0;entryPerimeter=0;endArrow=none;startFill=0;" edge="1" parent="1" source="wG35B6qLhLQNdXqf6sS5-281" target="wG35B6qLhLQNdXqf6sS5-86">
          <mxGeometry relative="1" as="geometry" />
        </mxCell>
        <mxCell id="wG35B6qLhLQNdXqf6sS5-303" style="edgeStyle=orthogonalEdgeStyle;rounded=0;orthogonalLoop=1;jettySize=auto;html=1;exitX=0;exitY=0.5;exitDx=0;exitDy=0;entryX=0.956;entryY=1.082;entryDx=0;entryDy=0;entryPerimeter=0;endArrow=none;startFill=0;" edge="1" parent="1" source="wG35B6qLhLQNdXqf6sS5-78" target="wG35B6qLhLQNdXqf6sS5-67">
          <mxGeometry relative="1" as="geometry" />
        </mxCell>
        <mxCell id="wG35B6qLhLQNdXqf6sS5-304" style="edgeStyle=orthogonalEdgeStyle;rounded=0;orthogonalLoop=1;jettySize=auto;html=1;exitX=0;exitY=0.5;exitDx=0;exitDy=0;entryX=0.842;entryY=1.099;entryDx=0;entryDy=0;entryPerimeter=0;endArrow=none;startFill=0;" edge="1" parent="1" source="wG35B6qLhLQNdXqf6sS5-75" target="wG35B6qLhLQNdXqf6sS5-67">
          <mxGeometry relative="1" as="geometry" />
        </mxCell>
        <mxCell id="wG35B6qLhLQNdXqf6sS5-306" style="edgeStyle=orthogonalEdgeStyle;rounded=0;orthogonalLoop=1;jettySize=auto;html=1;exitX=0;exitY=0.5;exitDx=0;exitDy=0;entryX=0.626;entryY=1.063;entryDx=0;entryDy=0;entryPerimeter=0;endArrow=none;startFill=0;" edge="1" parent="1" source="wG35B6qLhLQNdXqf6sS5-298" target="wG35B6qLhLQNdXqf6sS5-67">
          <mxGeometry relative="1" as="geometry">
            <Array as="points">
              <mxPoint x="720" y="810" />
              <mxPoint x="720" y="780" />
              <mxPoint x="616" y="780" />
            </Array>
          </mxGeometry>
        </mxCell>
        <mxCell id="wG35B6qLhLQNdXqf6sS5-307" style="edgeStyle=orthogonalEdgeStyle;rounded=0;orthogonalLoop=1;jettySize=auto;html=1;exitX=0;exitY=0.5;exitDx=0;exitDy=0;entryX=1.044;entryY=0.433;entryDx=0;entryDy=0;entryPerimeter=0;endArrow=none;startFill=0;" edge="1" parent="1" source="wG35B6qLhLQNdXqf6sS5-18" target="wG35B6qLhLQNdXqf6sS5-2">
          <mxGeometry relative="1" as="geometry" />
        </mxCell>
        <mxCell id="wG35B6qLhLQNdXqf6sS5-308" value="moodCategory" style="ellipse;whiteSpace=wrap;html=1;align=center;fillColor=#ffe6cc;strokeColor=#000000;dashed=1;" vertex="1" parent="1">
          <mxGeometry x="650" y="970" width="100" height="40" as="geometry" />
        </mxCell>
        <mxCell id="wG35B6qLhLQNdXqf6sS5-310" style="edgeStyle=orthogonalEdgeStyle;rounded=0;orthogonalLoop=1;jettySize=auto;html=1;exitX=0;exitY=0.5;exitDx=0;exitDy=0;entryX=0.642;entryY=1.13;entryDx=0;entryDy=0;entryPerimeter=0;endArrow=none;startFill=0;" edge="1" parent="1" source="wG35B6qLhLQNdXqf6sS5-308" target="wG35B6qLhLQNdXqf6sS5-86">
          <mxGeometry relative="1" as="geometry" />
        </mxCell>
      </root>
    </mxGraphModel>
  </diagram>
</mxfile>
